<svg width="339" height="285" viewBox="0 0 339 285" fill="none" xmlns="http://www.w3.org/2000/svg">
<g filter="url(#filter0_d_543_1598)">
<path d="M50 30H289V215L169.5 169.44L50 215V30Z" fill="url(#paint0_linear_543_1598)"/>
<path d="M98.456 137V71.5455H110.313V99.255H140.643V71.5455H152.533V137H140.643V109.195H110.313V137H98.456ZM186.331 137.959C181.537 137.959 177.382 136.904 173.866 134.795C170.35 132.685 167.623 129.734 165.684 125.942C163.767 122.149 162.808 117.717 162.808 112.646C162.808 107.575 163.767 103.133 165.684 99.3189C167.623 95.505 170.35 92.5433 173.866 90.4339C177.382 88.3246 181.537 87.2699 186.331 87.2699C191.125 87.2699 195.279 88.3246 198.795 90.4339C202.311 92.5433 205.027 95.505 206.945 99.3189C208.884 103.133 209.853 107.575 209.853 112.646C209.853 117.717 208.884 122.149 206.945 125.942C205.027 129.734 202.311 132.685 198.795 134.795C195.279 136.904 191.125 137.959 186.331 137.959ZM186.395 128.69C188.994 128.69 191.167 127.977 192.914 126.549C194.662 125.1 195.961 123.161 196.814 120.732C197.687 118.303 198.124 115.597 198.124 112.614C198.124 109.61 197.687 106.893 196.814 104.464C195.961 102.014 194.662 100.065 192.914 98.6158C191.167 97.1669 188.994 96.4425 186.395 96.4425C183.731 96.4425 181.515 97.1669 179.747 98.6158C178 100.065 176.689 102.014 175.816 104.464C174.963 106.893 174.537 109.61 174.537 112.614C174.537 115.597 174.963 118.303 175.816 120.732C176.689 123.161 178 125.1 179.747 126.549C181.515 127.977 183.731 128.69 186.395 128.69ZM244.187 87.9091V96.858H215.966V87.9091H244.187ZM222.933 76.1477H234.503V122.234C234.503 123.79 234.737 124.983 235.206 125.814C235.696 126.624 236.335 127.178 237.123 127.476C237.912 127.774 238.785 127.923 239.744 127.923C240.469 127.923 241.129 127.87 241.726 127.763C242.344 127.657 242.812 127.561 243.132 127.476L245.082 136.521C244.464 136.734 243.579 136.968 242.429 137.224C241.3 137.479 239.915 137.629 238.274 137.671C235.376 137.756 232.766 137.32 230.444 136.361C228.121 135.381 226.278 133.868 224.915 131.822C223.572 129.777 222.912 127.22 222.933 124.152V76.1477Z" fill="white"/>
</g>
<defs>
<filter id="filter0_d_543_1598" x="0" y="0" width="339" height="285" filterUnits="userSpaceOnUse" color-interpolation-filters="sRGB">
<feFlood flood-opacity="0" result="BackgroundImageFix"/>
<feColorMatrix in="SourceAlpha" type="matrix" values="0 0 0 0 0 0 0 0 0 0 0 0 0 0 0 0 0 0 127 0" result="hardAlpha"/>
<feOffset dy="20"/>
<feGaussianBlur stdDeviation="25"/>
<feComposite in2="hardAlpha" operator="out"/>
<feColorMatrix type="matrix" values="0 0 0 0 0 0 0 0 0 0 0 0 0 0 0 0 0 0 0.2 0"/>
<feBlend mode="normal" in2="BackgroundImageFix" result="effect1_dropShadow_543_1598"/>
<feBlend mode="normal" in="SourceGraphic" in2="effect1_dropShadow_543_1598" result="shape"/>
</filter>
<linearGradient id="paint0_linear_543_1598" x1="38.5" y1="111" x2="306" y2="111" gradientUnits="userSpaceOnUse">
<stop stop-color="#FF6960"/>
<stop offset="1" stop-color="#FF4D43"/>
</linearGradient>
</defs>
</svg>
