<svg xmlns="http://www.w3.org/2000/svg" xmlns:svgjs="http://svgjs.com/svgjs" xmlns:xlink="http://www.w3.org/1999/xlink" width="288" height="288"><svg xmlns="http://www.w3.org/2000/svg" width="288" height="288" fill="none" class="css-uulkxi" color="primary500" viewBox="0 0 24 24"><path fill="#108b45" fill-rule="evenodd" d="M20.25 6.74977H18.4537C18.6345 6.39247 18.7356 6.00019 18.75 5.60002C18.724 4.89259 18.4212 4.22367 17.9068 3.73733C17.3924 3.25098 16.7075 2.98612 15.9998 2.99977C15.1567 3.03608 14.3393 3.30064 13.6349 3.7652C12.9305 4.22976 12.3654 4.8769 12 5.63752C11.6385 4.87902 11.0778 4.23298 10.3776 3.76839C9.67753 3.30381 8.86436 3.03814 8.025 2.99977H7.9395C7.24185 3.00089 6.5718 3.27246 6.07024 3.75738C5.56867 4.2423 5.27465 4.9028 5.25 5.60002V5.64952C5.26463 6.03243 5.36158 6.40769 5.53425 6.74977H3.75C3.55109 6.74977 3.36032 6.82879 3.21967 6.96944C3.07902 7.11009 3 7.30086 3 7.49977V9.74977C3 9.94868 3.07902 10.1394 3.21967 10.2801C3.36032 10.4208 3.55109 10.4998 3.75 10.4998H20.25C20.4489 10.4998 20.6397 10.4208 20.7803 10.2801C20.921 10.1394 21 9.94868 21 9.74977V7.49977C21 7.30086 20.921 7.11009 20.7803 6.96944C20.6397 6.82879 20.4489 6.74977 20.25 6.74977ZM16.023 4.49977C16.3293 4.49182 16.6271 4.60137 16.8552 4.80595C17.0834 5.01053 17.2246 5.29464 17.25 5.60002C17.2394 5.90701 17.1105 6.19802 16.8904 6.41227C16.6703 6.62652 16.3759 6.74744 16.0687 6.74977H13.1085C13.575 5.80552 14.5028 4.49977 16.023 4.49977ZM6.75 5.62477C6.7692 5.31786 6.90549 5.03004 7.13074 4.8207C7.35599 4.61136 7.65301 4.49648 7.9605 4.49977C9.51225 4.50577 10.4213 5.79802 10.893 6.74977H7.968C7.66005 6.75209 7.36276 6.63709 7.13653 6.42813C6.9103 6.21918 6.7721 5.93194 6.75 5.62477ZM13.5 11.9999V20.9999H17.25C17.8467 20.9999 18.419 20.7629 18.841 20.3409C19.2629 19.919 19.5 19.3467 19.5 18.7499V11.9999H13.5ZM4.49999 11.9999H10.5V20.9999H6.74999C6.15325 20.9999 5.58096 20.7629 5.159 20.3409C4.73704 19.919 4.49999 19.3467 4.49999 18.7499V11.9999Z" class="color1435C3 svgShape" clip-rule="evenodd"/></svg></svg>